<svg xmlns="http://www.w3.org/2000/svg" fill="none" stroke-linejoin="round" stroke-width="3" viewBox="0 0 24 24" width="16" height="16">
  <path fill="#202020" d="M18.5 6c-1.252 0-2.25.998-2.25 2.25s.998 2.25 2.25 2.25 2.25-.998 2.25-2.25S19.752 6 18.5 6M8 11.25c-1.252 0-2.25.998-2.25 2.25s.998 2.25 2.25 2.25 2.25-.998 2.25-2.25-.998-2.25-2.25-2.25" overflow="visible"/>
  <path fill="#404040" d="M17 11.686V16s-.02.688-.342 1.33c-.32.642-.658 1.17-2.158 1.17h-2.904c-.128.41-.297.847-.518 1.29-.283.565-.716 1.156-1.27 1.71H14.5c2.5 0 4.163-1.472 4.842-2.83S20 16 20 16v-4.314c-.46.202-.968.314-1.5.314s-1.04-.112-1.5-.314M6.5 6v4.064c.46-.202.967-.314 1.5-.314s1.04.112 1.5.314V6Zm-.156 10.861a3 3 0 0 1-.186.47C5.838 17.971 5.5 18.5 4 18.5H1.5v3H4c2.5 0 4.163-1.472 4.842-2.83a6.4 6.4 0 0 0 .556-1.693 3.7 3.7 0 0 1-3.054-.116" overflow="visible"/>
  <path stroke="#404040" stroke-linecap="square" d="M3 3h18"/>
</svg>
